<?xml version="1.0" encoding="UTF-8" standalone="no"?>
<!DOCTYPE svg PUBLIC "-//W3C//DTD SVG 1.1//EN" "http://www.w3.org/Graphics/SVG/1.1/DTD/svg11.dtd">
<svg width="100%" height="100%" viewBox="0 0 64 64" version="1.1" xmlns="http://www.w3.org/2000/svg" xmlns:xlink="http://www.w3.org/1999/xlink" xml:space="preserve" xmlns:serif="http://www.serif.com/" style="fill-rule:evenodd;clip-rule:evenodd;stroke-linecap:round;stroke-linejoin:round;stroke-miterlimit:1.5;">
    <path d="M13,8L38.333,8L51,20.667L51,56L13,56L13,8Z" style="fill:rgb(14,94,186);stroke:rgb(17,17,17);stroke-width:1px;"/>
    <g>
        <g transform="matrix(0.965517,0,0,1,0.62069,-3)">
            <rect x="18" y="50" width="29" height="3" style="fill:white;"/>
        </g>
        <g transform="matrix(0.965517,0,0,1,0.62069,-10)">
            <rect x="18" y="50" width="29" height="3" style="fill:white;"/>
        </g>
        <g transform="matrix(0.965517,0,0,1,0.62069,-17)">
            <rect x="18" y="50" width="29" height="3" style="fill:white;"/>
        </g>
        <g transform="matrix(0.965517,0,0,1,0.62069,-24)">
            <rect x="18" y="50" width="29" height="3" style="fill:white;"/>
        </g>
        <g transform="matrix(0.75,0,0,0.75,4.5,6)">
            <rect x="18" y="12" width="20" height="4" style="fill:white;"/>
        </g>
    </g>
</svg>
